<svg width="28" height="28" viewBox="0 0 36 36" fill="none" xmlns="http://www.w3.org/2000/svg">
    <path d="M3.375 4.5H5.45353C6.21805 4.5 6.88706 5.01398 7.08405 5.75269L7.65884 7.90814M11.25 21.375C8.76472 21.375 6.75 23.3897 6.75 25.875H30.375M11.25 21.375H28.0774C29.7591 17.924 31.2266 14.3495 32.4626 10.6688C25.3201 8.84468 17.8358 7.875 10.125 7.875C9.30031 7.875 8.47821 7.8861 7.65884 7.90814M11.25 21.375L7.65884 7.90814M9 30.375C9 30.9963 8.49632 31.5 7.875 31.5C7.25368 31.5 6.75 30.9963 6.75 30.375C6.75 29.7537 7.25368 29.25 7.875 29.25C8.49632 29.25 9 29.7537 9 30.375ZM28.125 30.375C28.125 30.9963 27.6213 31.5 27 31.5C26.3787 31.5 25.875 30.9963 25.875 30.375C25.875 29.7537 26.3787 29.25 27 29.25C27.6213 29.25 28.125 29.7537 28.125 30.375Z" stroke="white" stroke-width="2" stroke-linecap="round" stroke-linejoin="round"/>
</svg>
