<svg width="28" height="28" viewBox="0 0 36 36" fill="none" xmlns="http://www.w3.org/2000/svg">
    <path d="M32.625 10.125V25.875C32.625 27.739 31.114 29.25 29.25 29.25H6.75C4.88604 29.25 3.375 27.739 3.375 25.875V10.125M32.625 10.125C32.625 8.26104 31.114 6.75 29.25 6.75H6.75C4.88604 6.75 3.375 8.26104 3.375 10.125M32.625 10.125V10.4891C32.625 11.6611 32.017 12.7492 31.0188 13.3634L19.7688 20.2865C18.6841 20.954 17.3159 20.954 16.2312 20.2865L4.98117 13.3634C3.98302 12.7492 3.375 11.6611 3.375 10.4891V10.125" stroke="white" stroke-width="2" stroke-linecap="round" stroke-linejoin="round"/>
</svg>
