<svg width="22" height="21" viewBox="0 0 22 21" fill="none" xmlns="http://www.w3.org/2000/svg">
    <path d="M20.5 7.44455V8.35064C20.5 9.17837 20.0455 9.93927 19.3167 10.3317L12.8393 13.8196M1 7.44455V8.35064C1 9.17837 1.45448 9.93927 2.18328 10.3317L8.66074 13.8196M17.5 16.3292L12.8393 13.8196M12.8393 13.8196L11.8167 13.269C11.1508 12.9104 10.3492 12.9104 9.68328 13.269L8.66074 13.8196M8.66074 13.8196L4 16.3292M20.5 17.9446C20.5 19.1872 19.4926 20.1946 18.25 20.1946H3.25C2.00736 20.1946 1 19.1872 1 17.9446L1 7.28846C1 6.46073 1.45448 5.69983 2.18328 5.3074L9.68328 1.26894C10.3492 0.910353 11.1508 0.910353 11.8167 1.26894L19.3167 5.3074C20.0455 5.69983 20.5 6.46073 20.5 7.28846V17.9446Z" stroke="#0F172A" stroke-width="1.5" stroke-linecap="round" stroke-linejoin="round"/>
</svg>
